# xmcd
#
# Track frame offsets: 
#        150
#        15893
#        31836
#        46268
#        62490
#        76975
#        90509
#        115365
#        140057
#        164224
#        178267
#        193610
#        211829
#        228276
#        243770
#        260098
#        274313
#        288371
#        308281
#        325242
#        339151
#
# Disc length: 4755 seconds
#
# Revision: 0
# Processed by: cddbd v1.5.2PL0 Copyright (c) Steve Scherf et al.
# Submitted via: ExactAudioCopy v1.3
#
DISCID=1e129115
DTITLE=Various Artists  - Akella Presents - vol. 217 - Americana  CD2
DYEAR=2019
DGENRE=Blues
TTITLE0=Lisa Lystam - Wherever I Can Find My Love
TTITLE1=J.J. Cale - Go Downtown
TTITLE2=Gurf Morlix - My Chainsaw
TTITLE3=Brent Moyer - Not About Nice
TTITLE4=Jack Tempchin - Always Magic When The Sun Goes Down
TTITLE5=Henry McCullough - Time To Put The Snakes To Bed
TTITLE6=Cooker John - Blue Monday
TTITLE7=Christone Kingfish Ingram - Listen
TTITLE8=Michael Russell - Gone
TTITLE9=The Dapper Band - Velvet Room
TTITLE10=Chris Turner - Thirty Pieces of Silver
TTITLE11=Chris Kramer - I Am Different
TTITLE12=The Seamus McGarvey Band - Hotel Happiness
TTITLE13=John Cee Stannard - You Took Me by Surprise
TTITLE14=Danny Shirley - I Know A Little
TTITLE15=Derek Davis - Back In My Arms
TTITLE16=Hamish Anderson - You Really Know What Love Is
TTITLE17=The Shadows - Better Find Somebody
TTITLE18=Mick Kolassa - My Hurry Done Broke
TTITLE19=Stella Jones - Wayfaring Stranger
TTITLE20=Dashboard Rattle - The Legend Of Jay Duvet
EXTD=
EXTT0=
EXTT1=
EXTT2=
EXTT3=
EXTT4=
EXTT5=
EXTT6=
EXTT7=
EXTT8=
EXTT9=
EXTT10=
EXTT11=
EXTT12=
EXTT13=
EXTT14=
EXTT15=
EXTT16=
EXTT17=
EXTT18=
EXTT19=
EXTT20=
PLAYORDER=
